<?xml version="1.0" encoding="UTF-8" standalone="no"?>
<!-- Created with Inkscape (http://www.inkscape.org/) -->

<svg
   xmlns:dc="http://purl.org/dc/elements/1.1/"
   xmlns:cc="http://creativecommons.org/ns#"
   xmlns:rdf="http://www.w3.org/1999/02/22-rdf-syntax-ns#"
   xmlns:svg="http://www.w3.org/2000/svg"
   xmlns="http://www.w3.org/2000/svg"
   xmlns:sodipodi="http://sodipodi.sourceforge.net/DTD/sodipodi-0.dtd"
   xmlns:inkscape="http://www.inkscape.org/namespaces/inkscape"
   width="64"
   height="64"
   id="svg2991"
   version="1.1"
   inkscape:version="0.48.4 r9939"
   sodipodi:docname="plus2.svg">
  <defs
     id="defs2993" />
  <sodipodi:namedview
     id="base"
     pagecolor="#ffffff"
     bordercolor="#666666"
     borderopacity="1.0"
     inkscape:pageopacity="0.0"
     inkscape:pageshadow="2"
     inkscape:zoom="5.88"
     inkscape:cx="27.815669"
     inkscape:cy="32.697312"
     inkscape:document-units="px"
     inkscape:current-layer="layer1"
     showgrid="false"
     inkscape:window-width="1366"
     inkscape:window-height="745"
     inkscape:window-x="-8"
     inkscape:window-y="-8"
     inkscape:window-maximized="1" />
  <metadata
     id="metadata2996">
    <rdf:RDF>
      <cc:Work
         rdf:about="">
        <dc:format>image/svg+xml</dc:format>
        <dc:type
           rdf:resource="http://purl.org/dc/dcmitype/StillImage" />
        <dc:title></dc:title>
      </cc:Work>
    </rdf:RDF>
  </metadata>
  <g
     inkscape:label="Layer 1"
     inkscape:groupmode="layer"
     id="layer1"
     transform="translate(0,-988.36218)">
    <g
       id="g3789"
       style="fill-opacity:1;">
      <path
         style="fill-opacity:1;fill-rule:nonzero;"
         d="m 32.000001,991.47784 c 3.67449,0 6.632653,2.95817 6.632653,6.63266 l 0,44.7279 c 0,3.6745 -2.958163,6.6326 -6.632653,6.6326 -3.67449,0 -6.632653,-2.9581 -6.632653,-6.6326 l 0,-44.7279 c 0,-3.67449 2.958163,-6.63266 6.632653,-6.63266 z"
         id="rect2999" />
      <path
         transform="matrix(0,1,-1,0,0,0)"
         style="fill-opacity:1;fill-rule:nonzero;"
         d="m 1020.3623,-60.996597 c 3.6745,0 6.6326,2.958163 6.6326,6.632653 l 0,44.7278919 c 0,3.6744899 -2.9581,6.6326532 -6.6326,6.6326532 -3.6745,0 -6.6327,-2.9581633 -6.6327,-6.6326532 l 0,-44.7278919 c 0,-3.67449 2.9582,-6.632653 6.6327,-6.632653 z"
         id="rect2999-1" />
    </g>
  </g>
</svg>
